<svg width="30" height="32" viewBox="0 0 30 32" fill="none" xmlns="http://www.w3.org/2000/svg">
<path fill-rule="evenodd" clip-rule="evenodd" d="M3 16.1117C3 9.10014 8.39032 3.54492 14.8846 3.54492C21.3789 3.54492 26.7692 9.10014 26.7692 16.1117C26.7692 23.1233 21.3789 28.6786 14.8846 28.6786H4.19829C4.28474 28.5293 4.36516 28.3858 4.43917 28.2479C4.78858 27.5965 5.0636 26.9464 5.1515 26.2315C5.24465 25.4739 5.08062 24.6514 4.85291 23.8088C4.61949 22.9451 4.25451 21.846 3.79563 20.4641L3.7801 20.4174C3.32831 19.0568 3 17.561 3 16.1117ZM14.8846 0.544922C6.59467 0.544922 2.6134e-07 7.58556 2.6134e-07 16.1117C2.6134e-07 17.9874 0.419454 19.8164 0.932967 21.3628C1.41085 22.8019 1.7483 23.82 1.95681 24.5915C2.17365 25.3939 2.19067 25.7292 2.17392 25.8654C2.15191 26.0445 2.07252 26.3134 1.79555 26.8297C1.5143 27.354 1.10034 28.0083 0.489423 28.9714L0.233346 29.3751C-0.0597023 29.837 -0.077994 30.4219 0.185614 30.9013C0.449222 31.3807 0.952917 31.6786 1.5 31.6786H14.8846C23.1746 31.6786 29.7692 24.6379 29.7692 16.1117C29.7692 7.58556 23.1746 0.544922 14.8846 0.544922ZM8.93608 17.6757C9.75743 17.6757 10.4233 16.9759 10.4233 16.1127C10.4233 15.2495 9.75743 14.5497 8.93608 14.5497C8.11473 14.5497 7.4489 15.2495 7.4489 16.1127C7.4489 16.9759 8.11473 17.6757 8.93608 17.6757ZM16.3716 16.1127C16.3716 16.9759 15.7058 17.6757 14.8844 17.6757C14.0631 17.6757 13.3973 16.9759 13.3973 16.1127C13.3973 15.2495 14.0631 14.5497 14.8844 14.5497C15.7058 14.5497 16.3716 15.2495 16.3716 16.1127ZM20.8333 17.6757C21.6547 17.6757 22.3205 16.9759 22.3205 16.1127C22.3205 15.2495 21.6547 14.5497 20.8333 14.5497C20.012 14.5497 19.3462 15.2495 19.3462 16.1127C19.3462 16.9759 20.012 17.6757 20.8333 17.6757Z" fill="#393939"/>
</svg>
